<?xml version="1.0" encoding="UTF-8"?>
<svg width="1920px" height="1438px" viewBox="0 0 1920 1438" version="1.1" xmlns="http://www.w3.org/2000/svg" xmlns:xlink="http://www.w3.org/1999/xlink">
    <title>Web 1920 – 7</title>
    <defs>
        <rect id="path-1" x="0" y="0" width="1920" height="1438"></rect>
    </defs>
    <g id="Page-1" stroke="none" stroke-width="1" fill="none" fill-rule="evenodd">
        <g id="Web-1920-–-7">
            <mask id="mask-2" fill="white">
                <use xlink:href="#path-1"></use>
            </mask>
            <g id="Rectangle"></g>
            <g id="Web_1920_7" mask="url(#mask-2)">
                <g transform="translate(-219.000000, -1.000000)">
                    <rect id="Rectangle" stroke="none" fill="#FFFFFF" fill-rule="nonzero" x="219" y="1" width="1920" height="1438"></rect>
                    <path d="M1825.622,1441.5 L1838.849,908.431 L1084.849,1141.231 L1838.849,908.431 L1825.622,1441.5 Z M1297.795,1441.5 L1084.847,1141.235 L1297.795,1441.5 Z M989.275,1441.5 L1084.139,1141.453 L989.275,1441.5 Z M112.351,1441.5 L1084.139,1141.453 L112.351,1441.5 Z M0.5,1441.189 L624.051,492.6 L0.5,1441.189 Z M1839.69,908.171 L2172,1158.493 L1839.69,908.171 Z M1084.846,1141.235 L1084.138,1141.453 L1084.846,1141.235 Z M1084.404,1140.612 L624.833,492.6 L1084.404,1140.612 L1084.134,1141.453 L1084.404,1140.612 Z M1084.405,1140.612 L1084.847,1141.235 L1084.405,1140.612 Z M1084.405,1140.612 L1289.038,493.376 L1289.284,492.597 L1289.038,493.376 L1838.869,907.553 L1289.038,493.376 L1084.405,1140.612 Z M1839.691,908.171 L1838.849,908.431 L1839.691,908.171 Z M1838.87,907.554 L1838.849,908.431 L1838.87,907.554 Z M1839.691,908.171 L2172,805.568 L1839.691,908.171 Z M1838.87,907.554 L1839.691,908.171 L1838.87,907.554 Z M1838.87,907.554 L1859.853,61.835 L1838.87,907.554 Z M1288,492.6 L1289.278,492.6 L1289.033,491.822 L1289.278,492.6 L1288,492.6 L1289.033,493.379 L1288,492.6 Z M1288.005,492.6 L1289.038,491.822 L1288.005,492.6 Z M624.833,492.6 L624.051,492.6 L624.427,492.027 L275.838,0.5 L624.427,492.024 L624.051,492.6 L624.833,492.6 L624.428,492.024 L624.833,492.6 Z M624.427,492.027 L947.526,0.5 L624.427,492.027 Z M1859.853,61.837 L1289.038,491.819 L1859.853,61.837 Z M1134.392,0.5 L1289.038,491.819 L1134.392,0.5 Z M1860.052,61.684 L2172,162.312 L1860.052,61.684 Z M1860.052,61.684 L1859.852,61.834 L1860.052,61.684 Z M1859.859,61.622 L1670.379,0.5 L1859.859,61.622 L1859.852,61.834 L1859.859,61.622 Z M1860.052,61.684 L1941.276,0.5 L1860.052,61.684 Z M1859.859,61.622 L1860.052,61.684 L1859.859,61.622 Z M1859.859,61.622 L1861.376,0.5 L1859.859,61.622 Z" id="Intersection_1" stroke="#A5A5A5" stroke-width="1" fill="none" stroke-linecap="square"></path>
                    <line x1="1288.4995" y1="492.5" x2="219.5" y2="492.5" id="Line-Copy-10" stroke="#A5A5A5" stroke-width="1" fill="none" stroke-linecap="square"></line>
                </g>
            </g>
        </g>
    </g>
</svg>