<?xml version="1.0" encoding="utf-8"?>
<!-- Generator: Adobe Illustrator 22.1.0, SVG Export Plug-In . SVG Version: 6.00 Build 0)  -->
<svg version="1.1" xmlns="http://www.w3.org/2000/svg" xmlns:xlink="http://www.w3.org/1999/xlink" x="0px" y="0px"
	 viewBox="0 0 171 31" style="enable-background:new 0 0 171 31;" xml:space="preserve">
<style type="text/css">
	.st0{fill:#0060C9;}
	.st1{font-family:'SpaceMono-Regular';}
	.st2{font-size:16.4448px;}
	.st3{display:none;}
	.st4{display:inline;}
	.st5{fill:#F68C1E;}
</style>
<g id="Layer_1">
</g>
<g id="Layer_2">
	<text transform="matrix(1 0 0 1 65.6787 21.665)" class="st0 st1 st2">x</text>
	<g id="Group_217_5_" transform="translate(-231.7 184.071)">
		<g>
			
				<rect id="Rectangle_131_4_" x="348.8" y="-170.2" transform="matrix(0.1477 -0.989 0.989 0.1477 470.5053 208.5614)" class="st0" width="15" height="3"/>
			<path id="Path_50_4_" class="st0" d="M367-158l-2.6-0.2l-4.2-15.4l3.1,0.3l2.7,11.4l4.8-10.7l3.1,0.3L367-158z"/>
			<path id="Path_51_4_" class="st0" d="M388.6-167.2l-11.4,2c0.9,2.7,2.9,3.6,5,3.2c1.9-0.3,3.4-1.7,3.8-3.6l2.7,0.6
				c-0.7,3.1-3.2,4.9-6.1,5.5c-3.9,0.7-7.6-1.2-8.5-6.3s2-8.1,5.9-8.8s7.6,1.2,8.5,6.3C388.6-168,388.6-167.6,388.6-167.2z
				 M376.8-167.7l8.6-1.5c-0.9-2.6-2.9-3.4-5-3.1C378.4-172,376.8-170.5,376.8-167.7z"/>
			<path id="Path_52_4_" class="st0" d="M388.2-161l2.9,0c-0.1,1.7,1.2,2.7,2.9,3.1c1.7,0.3,3.5-0.1,3.9-1.8
				c0.7-3.3-9.3-1.4-8.1-7.6c0.9-4.2,5.2-3.6,6.8-3.3c1.5,0.3,5.2,1.3,5.2,4.7l-2.8,0.2c0-1.6-1.2-2.4-2.8-2.7
				c-1.7-0.3-3.1,0-3.5,1.7c-0.7,3.4,9.3,1.4,8.1,7.6c-0.9,4.5-5.6,3.9-7.2,3.6C392-156,387.9-157.2,388.2-161z"/>
			<path id="Path_54_4_" class="st0" d="M357.9-157.5l0.2,2.5l-10.1,0.7l-1.2-18.3l2.9-0.2l1.1,15.8L357.9-157.5z"/>
			<circle id="Ellipse_26_4_" class="st0" cx="358" cy="-180.4" r="2.1"/>
			<g id="Group_158_4_" transform="translate(231.7 -158.566)">
				<path id="Path_55_4_" class="st0" d="M88.8-7.9c0,2.5,1.2,3.6,2.9,3.6c1.4,0,2.5-0.7,2.9-2.4l1.2,0.2c-0.5,2.2-2.1,3.2-4.1,3.2
					c-2.4,0-4.2-1.5-4.2-4.7s1.8-4.7,4.2-4.7c2,0,3.6,1.1,4.1,3.2l-1.2,0.2c-0.4-1.7-1.5-2.4-2.9-2.4C90-11.5,88.8-10.4,88.8-7.9z"
					/>
				<path id="Path_56_4_" class="st0" d="M103.9-9.4c0,2-1.3,3-3.4,3h-1.9v3.1h-1.3v-9.2h3.2C102.6-12.5,103.9-11.4,103.9-9.4z
					 M102.6-9.4c0-1.1-0.7-2-2.1-2h-1.9v3.9h1.9C101.9-7.5,102.6-8.3,102.6-9.4z"/>
				<path id="Path_57_4_" class="st0" d="M105-5.7l1.3-0.2c0.1,1.2,1.2,1.6,2.2,1.6c1,0,2.1-0.4,2.1-1.7c0-2.6-5.3-0.2-5.3-3.9
					c0-1.6,1.3-2.6,3.2-2.6c1.6,0,2.8,0.9,3,2.2l-1.2,0.2c-0.1-1-1-1.4-1.8-1.4c-0.9,0-1.9,0.4-1.9,1.6c0,2.3,5.3-0.1,5.3,3.9
					c0,1.2-0.7,2.8-3.4,2.8C105.9-3.2,105.2-4.6,105-5.7z"/>
			</g>
		</g>
	</g>
</g>
<g id="Layer_4" class="st3">
	<g class="st4">
		<path class="st0" d="M13.3,17.9c0.1,2.6-0.4,4.9-2.2,6.8c-2.4,2.5-6.5,2.2-8.5-0.5c-2.5-3.3-2.2-9.8,0.5-12.9
			c2.4-2.6,6.2-2.5,8.4,0.3C13,13.4,13.5,15.6,13.3,17.9z M10.9,17.5c-0.4-1.5-0.6-3.1-1.4-4.5c-1.1-2.1-3.6-2-4.9,0
			c-1.4,2.1-1.5,7.6,0.1,9.7c0.5,0.7,1.7,1.5,2.4,1.3c0.9-0.1,2.1-1,2.5-1.8C10.4,20.8,10.5,19.2,10.9,17.5z"/>
		<path class="st0" d="M30.1,10.3c-1,0.2-1.9,0.5-2.9,0.7c-2.1,0.3-4.5,2.4-4.8,4.4c-0.1,0.6,0.2,1.2,0.3,1.9c2.3-1.7,3.9-1.9,5.5-1
			c1.9,1.2,2.8,3.4,2.3,5.9c-0.3,1.8-2,3.3-3.9,3.8c-4,0.9-6.8-1.3-7-5.5c-0.1-3,0-5.8,2-8.3c1.8-2.3,5.6-3.5,8.3-2.5
			C30,9.9,30,10.1,30.1,10.3z M25.2,17.9c-1.6,0-2.8,1.3-2.9,3.2c0,2,1,3.2,2.7,3.3c1.8,0.1,3.1-1.3,3.1-3.2
			C28.1,19.3,26.9,17.9,25.2,17.9z"/>
		<path class="st0" d="M40.3,23.8c2.3-0.4,4.3,0.7,6-0.9c0.1-0.1,1.1,0.3,1.1,0.4c-0.1,0.9-0.3,2.6-0.6,2.6
			c-3.2,0.2-6.4,0.3-9.5,0.1c-1.4-0.1-0.7-1.5-0.1-2.2c1.3-1.4,2.7-2.8,4-4.2c0.8-0.9,1.7-1.7,2.4-2.6c0.4-0.5,0.9-1.1,0.8-1.6
			c-0.2-1.3-0.2-3.3-1-3.6c-1-0.5-2.6,0.3-3.9,0.7c-0.6,0.2-1.1,0.8-1.7,1.3c-0.8-2.2-0.8-2.5,1.8-3.7c2.7-1.2,6.7-0.9,7.7,2.6
			c0.5,1.7,0.2,3.3-1.1,4.6c-1.7,1.7-3.3,3.4-5,5.2C40.9,22.6,40.8,22.9,40.3,23.8z"/>
	</g>
</g>
<g id="Layer_3">
	<g>
		<path class="st5" d="M7.8,10c1.8,0,3.3,0.7,4.4,2.2s1.6,3.4,1.6,5.8c0,2.5-0.5,4.4-1.6,5.9C11.2,25.3,9.7,26,7.8,26
			c-1.8,0-3.3-0.7-4.4-2.2c-1.1-1.4-1.6-3.4-1.6-5.9s0.5-4.4,1.6-5.8S6,10,7.8,10z M7.9,12.7c-0.9,0-1.5,0.5-2,1.4
			C5.3,15,5.1,16.3,5.1,18c0,1.7,0.2,3,0.7,3.9c0.5,0.9,1.2,1.4,2,1.4c0.9,0,1.5-0.5,2-1.4c0.5-0.9,0.7-2.2,0.7-3.9
			c0-1.6-0.2-2.9-0.7-3.9C9.4,13.2,8.7,12.7,7.9,12.7z"/>
		<path class="st5" d="M23.2,17.1c0.4-0.4,0.9-0.8,1.4-1c0.5-0.2,1.1-0.4,1.7-0.4c1.3,0,2.4,0.5,3.3,1.5c0.9,1,1.3,2.2,1.3,3.7
			c0,1.5-0.5,2.8-1.5,3.7c-1,0.9-2.3,1.4-3.9,1.4c-1.7,0-3-0.6-4-1.9c-1-1.2-1.5-3-1.5-5.1c0-2.7,0.8-4.9,2.3-6.5
			c1.5-1.6,3.5-2.5,6-2.5c0.8,0,1.4,0.1,1.8,0.2c0.4,0.1,0.5,0.4,0.5,0.7c0,0.7-0.6,1.1-1.7,1.2c-0.5,0-0.9,0.1-1.1,0.1
			c-1.3,0.1-2.3,0.6-3,1.4C24.1,14.3,23.6,15.5,23.2,17.1z M27.9,21c0-0.8-0.2-1.4-0.7-1.9c-0.4-0.5-1-0.8-1.7-0.8
			c-0.7,0-1.2,0.2-1.7,0.7c-0.4,0.5-0.7,1.1-0.7,1.8c0,0.8,0.2,1.4,0.7,2c0.5,0.5,1,0.8,1.7,0.8c0.7,0,1.2-0.2,1.6-0.7
			C27.7,22.4,27.9,21.8,27.9,21z"/>
		<path class="st5" d="M41,22.9h4.2v-0.1c0-0.4,0.1-0.7,0.3-0.9c0.2-0.2,0.5-0.3,1-0.3c0.4,0,0.6,0.1,0.8,0.3
			c0.2,0.2,0.3,0.5,0.3,0.8v0.2l-0.1,1.9c0,0.4-0.1,0.6-0.2,0.7c-0.1,0.1-0.3,0.1-0.5,0.1h-8.7c-0.5,0-0.8-0.1-1.1-0.3
			c-0.3-0.2-0.4-0.5-0.4-0.9c0-0.3,0.1-0.6,0.2-0.9c0.2-0.3,0.4-0.6,0.8-0.9l4.9-4.7c0.5-0.5,0.9-1,1.2-1.5c0.3-0.5,0.4-1,0.4-1.5
			c0-0.7-0.2-1.3-0.5-1.6c-0.3-0.4-0.9-0.5-1.6-0.5c-0.4,0-0.8,0.1-1.1,0.2s-0.6,0.3-0.8,0.5c-0.1,0.1-0.2,0.3-0.3,0.5
			c-0.4,0.6-0.8,0.9-1.3,0.9c-0.4,0-0.7-0.1-0.9-0.4c-0.2-0.3-0.3-0.7-0.3-1.2c0-0.5,0.1-0.9,0.2-1.2c0.1-0.3,0.4-0.5,0.8-0.8
			c0.6-0.4,1.3-0.7,2-0.9c0.7-0.2,1.4-0.3,2.3-0.3c1.5,0,2.7,0.4,3.6,1.2c0.9,0.8,1.3,1.9,1.3,3.3c0,0.9-0.2,1.8-0.7,2.7
			c-0.5,0.8-1.2,1.7-2.2,2.5L41,22.9z"/>
	</g>
</g>
</svg>
